<svg width="22" height="22" viewBox="0 0 22 22" fill="none" 
    xmlns="http://www.w3.org/2000/svg">
    <path d="M21.7297 6.8296L14.4574 2.11995C14.3122 2.02592 14.1188 2.06822 14.0254 2.21428C13.9321 2.36038 13.974 2.555 14.1191 2.64903L21.2852 7.28983H19.6146L11.4572 2.00698C11.1795 1.82714 10.8206 1.82719 10.5428 2.00698L2.38536 7.28983H0.714814L10.9996 0.628762L12.4562 1.57205C12.6014 1.66603 12.7947 1.62382 12.8881 1.47772C12.9815 1.33162 12.9396 1.137 12.7944 1.04297L11.3378 0.0996812C11.1326 -0.0332271 10.8674 -0.0332271 10.6622 0.0996812L0.270302 6.8296C0.0490129 6.97294 -0.0498154 7.23996 0.0243917 7.4941C0.0985989 7.74824 0.325259 7.91899 0.5884 7.91899H2.16467V9.00328V9.95288C2.16467 10.2033 2.3411 10.4129 2.57536 10.4625V11.0162C2.57536 11.3034 2.80748 11.537 3.09279 11.537H3.13576V15.3911C3.13576 15.5649 3.27567 15.7057 3.44828 15.7057C3.62088 15.7057 3.76079 15.5649 3.76079 15.3911V11.2225C3.76079 11.0487 3.62088 10.9079 3.44828 10.9079H3.20043V10.4737H5.41388V10.9078H5.16604C4.99343 10.9078 4.85353 11.0486 4.85353 11.2224V18.1725C4.85353 18.3463 4.99343 18.4871 5.16604 18.4871H5.41388V18.9592H3.20043V18.4871H3.44828C3.62088 18.4871 3.76079 18.3463 3.76079 18.1725V17.3685C3.76079 17.1948 3.62088 17.0539 3.44828 17.0539C3.27567 17.0539 3.13576 17.1948 3.13576 17.3685V17.858H3.09279C2.80748 17.858 2.57536 18.0916 2.57536 18.3787V18.9324C2.34105 18.982 2.16467 19.1917 2.16467 19.442V20.077H1.05762C0.71215 20.077 0.431091 20.3599 0.431091 20.7077V21.3694C0.431091 21.7171 0.71215 22 1.05762 22H20.9424C21.2878 22 21.5689 21.7171 21.5689 21.3694V20.7077C21.5689 20.3599 21.2878 20.077 20.9424 20.077H19.8353V19.442C19.8353 19.1917 19.6589 18.982 19.4246 18.9324V18.3787C19.4246 18.0916 19.1925 17.858 18.9072 17.858H18.8642V11.5369H18.9072C19.1925 11.5369 19.4246 11.3033 19.4246 11.0161V10.4625C19.6589 10.4129 19.8353 10.2032 19.8353 9.9528V9.00319V7.91891H21.4116C21.6747 7.91891 21.9014 7.74815 21.9756 7.49402C22.0498 7.23996 21.951 6.97289 21.7297 6.8296ZM10.881 2.53606C10.9533 2.48922 11.0467 2.48926 11.119 2.53606L18.4595 7.28987H3.54053L10.881 2.53606ZM2.78969 7.91895H19.2103V8.68868H15.8629H12.83H9.17004H6.13709H2.78969V7.91895ZM12.7318 18.9325V18.3788C12.7318 18.0916 12.4997 17.858 12.2144 17.858H12.1714V11.537H12.2144C12.4997 11.537 12.7318 11.3034 12.7318 11.0162V10.4625C12.9661 10.4129 13.1425 10.2033 13.1425 9.95288V9.31784H15.5504V9.95288C15.5504 10.2033 15.7268 10.4129 15.9611 10.4625V11.0162C15.9611 11.3034 16.1932 11.537 16.4785 11.537H16.5215V17.858H16.4785C16.1932 17.858 15.9611 18.0916 15.9611 18.3788V18.9325C15.7268 18.9821 15.5504 19.1918 15.5504 19.4421V20.0771H13.1425V19.4421C13.1425 19.1918 12.9661 18.9821 12.7318 18.9325ZM6.03891 18.9325V18.3788C6.03891 18.0916 5.80679 17.858 5.52148 17.858H5.47851V11.537H5.52148C5.80679 11.537 6.03891 11.3034 6.03891 11.0162V10.4625C6.27317 10.4129 6.4496 10.2033 6.4496 9.95288V9.31784H8.85753V9.95288C8.85753 10.2033 9.03396 10.4129 9.26823 10.4625V11.0162C9.26823 11.3034 9.50035 11.537 9.78566 11.537H9.82863V17.858H9.78566C9.50035 17.858 9.26823 18.0916 9.26823 18.3788V18.9325C9.03396 18.9821 8.85753 19.1918 8.85753 19.4421V20.0771H6.4496V19.4421C6.4496 19.1918 6.27317 18.9821 6.03891 18.9325ZM11.8589 18.4871H12.1067V18.9592H9.8933V18.4871H10.1411C10.3137 18.4871 10.4537 18.3463 10.4537 18.1725V11.2224C10.4537 11.0487 10.3137 10.9078 10.1411 10.9078H9.8933V10.4737H12.1067V10.9078H11.8589C11.6863 10.9078 11.5464 11.0486 11.5464 11.2224V18.1725C11.5464 18.3463 11.6863 18.4871 11.8589 18.4871ZM9.58074 9.84454H9.57937H9.48256V9.31784H12.5174V9.84454H12.4193C12.419 9.84454 12.4188 9.84458 12.4186 9.84458C12.4184 9.84458 12.4181 9.84454 12.4179 9.84454H9.58074ZM9.48256 19.5728C9.51306 19.5828 9.54555 19.5884 9.57937 19.5884H12.4178C12.4527 19.5884 12.4861 19.5823 12.5174 19.5718V20.0771H9.48256V19.5728ZM2.88792 9.84454H2.78974V9.31784H5.82462V9.84454H5.82458H5.7264H2.88792ZM2.78969 19.5723C2.82059 19.5826 2.85354 19.5884 2.88788 19.5884H5.7264C5.76073 19.5884 5.79368 19.5826 5.82458 19.5723V20.0771H2.78969V19.5723ZM20.9439 20.7077L20.943 21.3709C20.943 21.3709 20.9429 21.3709 20.9424 21.3709L1.05612 21.3695L1.05762 20.7063L20.9439 20.7077ZM19.1112 19.5883C19.1459 19.5883 19.1791 19.5824 19.2103 19.5719V20.0771H16.1754V19.5726C16.2061 19.5827 16.2387 19.5883 16.2727 19.5883H19.1112ZM16.834 10.9079H16.5861V10.4737H18.7996V10.9078H18.5517C18.3791 10.9078 18.2392 11.0486 18.2392 11.2224V18.1725C18.2392 18.3463 18.3791 18.4871 18.5517 18.4871H18.7996V18.9592H16.5861V18.4871H16.834C17.0066 18.4871 17.1465 18.3463 17.1465 18.1726V11.2224C17.1465 11.0487 17.0066 10.9079 16.834 10.9079ZM19.2104 9.84454H19.1121C19.112 9.84454 19.1118 9.84458 19.1117 9.84458C19.1116 9.84458 19.1114 9.84454 19.1113 9.84454H16.2736H16.2728H16.1755V9.31784H19.2104V9.84454Z" fill="#52616B"/>
</svg>
