<svg width="22" height="22" viewBox="0 0 22 22" fill="none" xmlns="http://www.w3.org/2000/svg">
<g opacity="0.75">
<path d="M16.5 2.29102C14.475 2.29102 12.8334 3.93264 12.8334 5.95767C12.8334 7.9827 14.475 9.62436 16.5 9.62436C18.5241 9.62209 20.1644 7.9818 20.1667 5.95771C20.1667 3.93264 18.5251 2.29102 16.5 2.29102ZM16.5 8.70771C14.9813 8.70771 13.75 7.47648 13.75 5.95771C13.75 4.43894 14.9813 3.20771 16.5 3.20771C18.0182 3.20921 19.2485 4.43954 19.25 5.95771C19.25 7.47648 18.0188 8.70771 16.5 8.70771Z" fill="#52616B"/>
<path d="M17.551 4.7168L16.0417 6.22607L15.4491 5.63345L14.801 6.28155L15.7177 7.1982C15.8036 7.28418 15.9202 7.33248 16.0417 7.33248C16.1633 7.33243 16.2798 7.28414 16.3657 7.1982L18.1991 5.36485L17.551 4.7168Z" fill="#52616B"/>
<path d="M15.5833 11.916H9.16663V12.8327H15.5833V11.916Z" fill="#52616B"/>
<path d="M10.0834 5.5H5.04172C3.27064 5.50202 1.83539 6.93726 1.83337 8.70835H2.75007C2.75157 7.44331 3.77672 6.4182 5.04172 6.4167H10.0834C10.5896 6.4167 11 6.82709 11 7.33335C11 7.83961 10.5896 8.25 10.0834 8.25H5.04172V9.16665H10.0834C11.0959 9.16665 11.9167 8.34586 11.9167 7.3333C11.9167 6.32075 11.0959 5.5 10.0834 5.5Z" fill="#52616B"/>
<path d="M0.458348 7.33398C0.205219 7.33398 0 7.53916 0 7.79229V8.25064H2.29165V7.33398H0.458348Z" fill="#52616B"/>
<path d="M21.0834 13.2923V19.709C21.0834 20.4684 20.4678 21.084 19.7084 21.084H8.7084C7.94901 21.084 7.3334 20.4684 7.3334 19.709V8.70898H6.41675V19.709C6.41825 20.974 7.4434 21.9991 8.7084 22.0006H19.7084C20.9734 21.9991 21.9985 20.974 22.0001 19.709V13.2923H21.0834Z" fill="#52616B"/>
<path d="M19.7084 0H10.5417C10.4201 4.29688e-05 10.3036 0.0483398 10.2177 0.134277L6.55103 3.80093L7.19912 4.44903L10.7315 0.916652H19.7084C20.4678 0.916652 21.0834 1.53227 21.0834 2.29165V8.7083H22.0001V2.29165C21.9985 1.02665 20.9734 0.00150391 19.7084 0Z" fill="#52616B"/>
<path d="M10.8659 0.134283C10.6869 -0.0447251 10.3967 -0.0447681 10.2177 0.134197L6.55103 3.80085C6.46504 3.88679 6.41675 4.00336 6.41675 4.12488V5.95822H7.3334V4.31463L10.0834 1.56463V3.20822C10.0834 3.46135 9.87818 3.66657 9.62505 3.66657H8.7084V4.58322H9.62505C10.3844 4.58322 11.0001 3.96761 11.0001 3.20822V0.458224C11 0.336708 10.9518 0.220177 10.8659 0.134283Z" fill="#52616B"/>
<path d="M2.75003 12.375H1.83337C1.83539 14.1461 3.27064 15.5813 5.04172 15.5833V14.6667C3.77668 14.6651 2.75153 13.64 2.75003 12.375Z" fill="#52616B"/>
<path d="M6.87497 14.666H5.04163V15.5827H6.87497V14.666Z" fill="#52616B"/>
<path d="M0 12.834V13.2923C0 13.5454 0.205219 13.7506 0.458348 13.7506H2.2917V12.834H0Z" fill="#52616B"/>
<path d="M21.6021 10.0232C21.0648 9.5105 20.2195 9.5105 19.6822 10.0232L13.3228 16.3826C13.1439 16.5615 13.1439 16.8517 13.3228 17.0307L14.5947 18.3025C14.6806 18.3885 14.7972 18.4368 14.9187 18.4368C15.0403 18.4368 15.1568 18.3885 15.2427 18.3025L21.6021 11.9432C21.6023 11.943 21.6026 11.9427 21.6028 11.9425C22.1326 11.4122 22.1323 10.553 21.6021 10.0232ZM20.9541 11.2951L14.9187 17.3304L14.295 16.7066L20.3303 10.6713C20.5048 10.5045 20.7796 10.5045 20.9541 10.6713C20.9542 10.6713 20.9543 10.6714 20.9543 10.6715C21.1264 10.8438 21.1263 11.1229 20.9541 11.2951Z" fill="#52616B"/>
<path d="M14.7124 17.5684L13.3998 18.2242L14.057 16.9102L13.2371 16.5L11.9647 19.0451C11.9329 19.1088 11.9163 19.179 11.9164 19.2502C11.9165 19.5033 12.1218 19.7084 12.3749 19.7083C12.4458 19.7089 12.5159 19.6933 12.5798 19.6625L15.1249 18.3883L14.7124 17.5684Z" fill="#52616B"/>
<path d="M18.741 11.6136L18.0928 12.2617L19.3643 13.5336L20.0126 12.8855L18.741 11.6136Z" fill="#52616B"/>
<path d="M12.375 18.791H9.16663V19.7077H12.375V18.791Z" fill="#52616B"/>
<path d="M11.9166 16.5H9.16663V17.4167H11.9166V16.5Z" fill="#52616B"/>
<path d="M13.2916 14.209H9.16663V15.1256H13.2916V14.209Z" fill="#52616B"/>
<path d="M19.25 18.791H15.125V19.7077H19.25V18.791Z" fill="#52616B"/>
<path d="M19.25 16.5H17.4166V17.4167H19.25V16.5Z" fill="#52616B"/>
</g>
</svg>
