<svg width="22" height="26" viewBox="0 0 22 26" fill="none" xmlns="http://www.w3.org/2000/svg">
<g opacity="0.75">
<path d="M19.11 15.1191H17.098H2.89C1.29643 15.1191 0 16.4348 0 18.052C0 19.6692 1.29648 20.9848 2.89 20.9848H4.58395L4.36532 21.1651C4.11357 21.3727 4.00028 21.7014 4.06964 22.0229C4.13899 22.3444 4.37723 22.5951 4.69143 22.6769L4.80497 22.7065L4.24463 24.922C4.17592 25.1937 4.33725 25.4704 4.60491 25.5401L6.30672 25.9834C6.3477 25.9941 6.38948 25.9993 6.43112 25.9993C6.51999 25.9993 6.60811 25.9753 6.68587 25.9286C6.80011 25.86 6.88282 25.7482 6.9158 25.6178L7.4762 23.4021L7.58974 23.4317C7.90394 23.5136 8.23165 23.4104 8.44502 23.1624C8.65839 22.9145 8.71503 22.5711 8.59293 22.2662L8.07968 20.9848H17.098H19.11V20.9848C20.7036 20.9848 22 19.6692 22 18.052C22 16.4348 20.7035 15.1191 19.11 15.1191ZM4.91336 22.2777L4.91316 22.2785C4.91326 22.2782 4.91331 22.2778 4.91341 22.2775C4.91336 22.2776 4.91336 22.2777 4.91336 22.2777ZM7.30286 22.3085C7.15669 22.2703 7.00467 22.2923 6.87472 22.3703C6.74481 22.4482 6.65264 22.5728 6.61521 22.721L6.07083 24.8735L5.33835 24.6826L5.88268 22.5304C5.92026 22.382 5.89864 22.2277 5.82173 22.0958C5.74482 21.964 5.62197 21.8705 5.47616 21.8327L5.22275 21.7666L6.17116 20.9848L6.7937 20.4716L6.99927 20.9848L7.55586 22.3744L7.30286 22.3085ZM16.5976 19.9692H7.67285L7.46639 19.4538C7.40664 19.3047 7.28084 19.1931 7.12722 19.1532C6.9735 19.113 6.81037 19.1494 6.68727 19.2509L5.81588 19.9692H2.89C1.84827 19.9692 1.0008 19.1091 1.0008 18.052C1.0008 16.9949 1.84832 16.1348 2.89 16.1348H16.5976V19.9692H16.5976ZM19.11 19.9692H17.5984V16.1348H19.11C20.1517 16.1348 20.9992 16.9949 20.9992 18.052C20.9992 19.1091 20.1516 19.9692 19.11 19.9692Z" fill="#52616B"/>
<path d="M19.4 16.8902C19.2286 16.6702 18.9139 16.6328 18.6971 16.8068C18.4803 16.9807 18.4436 17.3001 18.615 17.5201L18.952 17.9527L18.615 18.3853C18.4436 18.6053 18.4804 18.9246 18.6971 19.0986C18.789 19.1723 18.8985 19.208 19.0071 19.208C19.1549 19.208 19.3012 19.1419 19.4 19.0152L19.9825 18.2676C20.1263 18.083 20.1263 17.8223 19.9825 17.6377L19.4 16.8902Z" fill="#52616B"/>
<path d="M3.04267 18.2466C3.05518 18.2776 3.07069 18.3071 3.08871 18.3345C3.10722 18.3624 3.12824 18.3883 3.15126 18.4117C3.17427 18.4351 3.19979 18.4564 3.22732 18.4746C3.25434 18.4929 3.28336 18.5087 3.31338 18.5213C3.34391 18.534 3.37493 18.5437 3.40696 18.5503C3.43948 18.5569 3.47201 18.5605 3.50504 18.5605C3.53756 18.5605 3.57009 18.5569 3.60261 18.5503C3.63464 18.5437 3.66616 18.534 3.69619 18.5213C3.72621 18.5087 3.75574 18.4929 3.78276 18.4746C3.80978 18.4564 3.8358 18.4351 3.85882 18.4117C3.88184 18.3883 3.90285 18.3624 3.92087 18.3345C3.93888 18.3071 3.95439 18.2776 3.9669 18.2466C3.97941 18.2162 3.98892 18.1842 3.99543 18.1517C4.00193 18.1192 4.00543 18.0856 4.00543 18.0527C4.00543 18.0197 4.00193 17.9861 3.99543 17.9532C3.98892 17.9212 3.97941 17.8892 3.9669 17.8582C3.95439 17.8277 3.93888 17.7983 3.92087 17.7709C3.90285 17.7429 3.88184 17.717 3.85882 17.6936C3.8358 17.6703 3.80978 17.6489 3.78276 17.6301C3.75574 17.6119 3.72621 17.5961 3.69619 17.5834C3.66616 17.5707 3.63464 17.5611 3.60261 17.5545C3.43998 17.5215 3.26735 17.5753 3.15126 17.6936C3.12824 17.717 3.10722 17.7429 3.08871 17.7709C3.07069 17.7983 3.05518 17.8277 3.04267 17.8582C3.03016 17.8892 3.02065 17.9212 3.01415 17.9532C3.00764 17.9861 3.00464 18.0197 3.00464 18.0527C3.00464 18.0856 3.00764 18.1192 3.01415 18.1517C3.02065 18.1842 3.03016 18.2162 3.04267 18.2466Z" fill="#52616B"/>
<path d="M5.7038 18.2466C5.71631 18.2776 5.73182 18.3071 5.74984 18.3345C5.76835 18.3624 5.78937 18.3883 5.81239 18.4117C5.83541 18.4351 5.86093 18.4564 5.88845 18.4746C5.91547 18.4929 5.94449 18.5087 5.97452 18.5214C6.00504 18.5341 6.03657 18.5437 6.06809 18.5503C6.10062 18.5569 6.13364 18.5605 6.16617 18.5605C6.1987 18.5605 6.23172 18.5569 6.26375 18.5503C6.29577 18.5437 6.3273 18.5341 6.35732 18.5214C6.38785 18.5087 6.41687 18.4929 6.44389 18.4746C6.47141 18.4564 6.49693 18.4351 6.51995 18.4117C6.54297 18.3883 6.56399 18.3624 6.582 18.3345C6.60002 18.3071 6.61553 18.2776 6.62804 18.2466C6.64055 18.2162 6.65005 18.1842 6.65656 18.1517C6.66306 18.1192 6.66657 18.0857 6.66657 18.0527C6.66657 18.0197 6.66306 17.9861 6.65656 17.9532C6.65005 17.9212 6.64055 17.8892 6.62804 17.8582C6.61553 17.8277 6.60002 17.7983 6.582 17.7709C6.56399 17.7429 6.54297 17.717 6.51995 17.6936C6.40386 17.5753 6.23122 17.5215 6.06809 17.5545C6.03657 17.5611 6.00504 17.5707 5.97452 17.5834C5.94449 17.5961 5.91547 17.6119 5.88845 17.6302C5.86093 17.6489 5.83541 17.6703 5.81239 17.6936C5.78937 17.717 5.76835 17.7429 5.74984 17.7709C5.73182 17.7983 5.71631 17.8277 5.7038 17.8582C5.69129 17.8892 5.68178 17.9212 5.67528 17.9532C5.66877 17.9861 5.66577 18.0197 5.66577 18.0527C5.66577 18.0857 5.66877 18.1192 5.67528 18.1517C5.68178 18.1842 5.69129 18.2162 5.7038 18.2466Z" fill="#52616B"/>
<path d="M8.36544 18.2466C8.37795 18.2776 8.39346 18.3071 8.41147 18.3345C8.42949 18.3624 8.4505 18.3883 8.47352 18.4117C8.49654 18.4351 8.52206 18.4564 8.54958 18.4746C8.5766 18.4929 8.60563 18.5087 8.63615 18.5214C8.66617 18.5341 8.6977 18.5437 8.72972 18.5503C8.76175 18.5569 8.79478 18.5605 8.8273 18.5605C8.85983 18.5605 8.89286 18.5569 8.92488 18.5503C8.95691 18.5437 8.98843 18.5341 9.01845 18.5214C9.04898 18.5087 9.078 18.4929 9.10502 18.4746C9.13255 18.4564 9.15807 18.4351 9.18108 18.4117C9.2041 18.3883 9.22512 18.3624 9.24313 18.3345C9.26115 18.3071 9.27666 18.2776 9.28917 18.2466C9.30168 18.2162 9.31119 18.1842 9.31769 18.1517C9.3242 18.1192 9.3277 18.0857 9.3277 18.0527C9.3277 18.0197 9.3242 17.9861 9.31769 17.9532C9.31169 17.9212 9.30168 17.8892 9.28917 17.8582C9.27666 17.8277 9.26115 17.7983 9.24313 17.7709C9.22512 17.7429 9.2041 17.717 9.18108 17.6936C9.06499 17.5753 8.89185 17.5215 8.72972 17.5545C8.6977 17.5611 8.66617 17.5707 8.63565 17.5834C8.60563 17.5961 8.5766 17.6119 8.54958 17.6302C8.52206 17.6489 8.49654 17.6703 8.47352 17.6936C8.4505 17.717 8.42949 17.7429 8.41147 17.7709C8.39346 17.7983 8.37795 17.8277 8.36544 17.8582C8.35293 17.8892 8.34292 17.9212 8.33691 17.9532C8.33041 17.9861 8.3269 18.0197 8.3269 18.0527C8.3269 18.0857 8.33041 18.1192 8.33691 18.1517C8.34292 18.1842 8.35293 18.2162 8.36544 18.2466Z" fill="#52616B"/>
<path d="M11.0266 18.2466C11.0391 18.2776 11.0546 18.3071 11.0726 18.3345C11.0906 18.3624 11.1116 18.3883 11.1347 18.4117C11.1577 18.4351 11.1832 18.4564 11.2107 18.4746C11.2377 18.4929 11.2668 18.5087 11.2973 18.5214C11.3273 18.5341 11.3588 18.5437 11.3909 18.5503C11.4229 18.5569 11.4559 18.5605 11.4884 18.5605C11.521 18.5605 11.554 18.5569 11.586 18.5503C11.618 18.5437 11.6496 18.5341 11.6796 18.5214C11.7101 18.5087 11.7391 18.4929 11.7662 18.4746C11.7937 18.4564 11.8192 18.4351 11.8422 18.4117C11.8652 18.3883 11.8863 18.3624 11.9043 18.3345C11.9223 18.3071 11.9378 18.2776 11.9503 18.2466C11.9628 18.2162 11.9728 18.1842 11.9788 18.1517C11.9853 18.1192 11.9888 18.0857 11.9888 18.0527C11.9888 18.0197 11.9853 17.9861 11.9788 17.9532C11.9728 17.9212 11.9628 17.8892 11.9503 17.8582C11.9378 17.8277 11.9223 17.7983 11.9043 17.7709C11.8863 17.7429 11.8652 17.717 11.8422 17.6936C11.7261 17.5753 11.553 17.5215 11.3909 17.5545C11.3588 17.5611 11.3273 17.5707 11.2973 17.5834C11.2668 17.5961 11.2377 17.6119 11.2107 17.6302C11.1832 17.6489 11.1577 17.6703 11.1347 17.6936C11.1116 17.717 11.0906 17.7429 11.0726 17.7709C11.0546 17.7983 11.0391 17.8277 11.0266 17.8582C11.0141 17.8892 11.0046 17.9212 10.998 17.9532C10.9915 17.9861 10.988 18.0197 10.988 18.0527C10.988 18.0857 10.9915 18.1192 10.998 18.1517C11.0046 18.1842 11.0141 18.2162 11.0266 18.2466Z" fill="#52616B"/>
<path d="M13.6877 18.247C13.7002 18.278 13.7157 18.3074 13.7337 18.3348C13.7518 18.3628 13.7728 18.3887 13.7958 18.412C13.8188 18.4354 13.8443 18.4568 13.8718 18.475C13.8989 18.4933 13.9279 18.509 13.9584 18.5217C13.9884 18.5344 14.02 18.544 14.052 18.5506C14.084 18.5572 14.117 18.5608 14.1496 18.5608C14.1821 18.5608 14.2151 18.5572 14.2476 18.5506C14.2792 18.544 14.3107 18.5344 14.3412 18.5217C14.3712 18.509 14.4003 18.4933 14.4273 18.475C14.4548 18.4568 14.4803 18.4354 14.5033 18.412C14.5264 18.3887 14.5474 18.3628 14.5659 18.3348C14.5839 18.3074 14.5994 18.278 14.6119 18.247C14.6244 18.2165 14.634 18.1846 14.6405 18.1521C14.647 18.1195 14.65 18.086 14.65 18.053C14.65 18.02 14.647 17.9865 14.6405 17.9535C14.634 17.9215 14.6244 17.8895 14.6119 17.8585C14.5994 17.828 14.5839 17.7986 14.5659 17.7712C14.5474 17.7432 14.5264 17.7173 14.5033 17.694C14.4803 17.6706 14.4548 17.6493 14.4273 17.6305C14.4003 17.6122 14.3712 17.5965 14.3412 17.5838C14.3107 17.5711 14.2792 17.5614 14.2476 17.5548C14.1831 17.5416 14.1165 17.5416 14.052 17.5548C14.02 17.5614 13.9884 17.5711 13.9584 17.5838C13.9279 17.5965 13.8989 17.6122 13.8718 17.6305C13.8443 17.6493 13.8188 17.6706 13.7958 17.694C13.7728 17.7173 13.7518 17.7432 13.7337 17.7712C13.7157 17.7986 13.7002 17.828 13.6877 17.8585C13.6752 17.8895 13.6657 17.9215 13.6592 17.9535C13.6527 17.9865 13.6492 18.02 13.6492 18.053C13.6492 18.086 13.6527 18.1196 13.6592 18.1521C13.6657 18.1846 13.6752 18.2166 13.6877 18.247Z" fill="#52616B"/>
<path d="M6.60941 12.8356C6.62167 12.8475 6.63433 12.859 6.64784 12.8696C7.79691 13.7717 9.15539 14.2824 10.5972 14.3585C10.6075 14.3591 10.6178 14.3596 10.6281 14.3601C10.6738 14.3623 10.7197 14.3641 10.7656 14.3654C10.7791 14.3658 10.7926 14.3663 10.8061 14.3667C10.8627 14.368 10.9193 14.3689 10.9762 14.3689C11.0333 14.3689 11.0903 14.368 11.1473 14.3667C11.1603 14.3664 11.1732 14.3659 11.1862 14.3655C11.2332 14.3641 11.2801 14.3623 11.3269 14.3601C11.3359 14.3596 11.3449 14.3591 11.3538 14.3586C12.8193 14.2817 14.196 13.7572 15.3556 12.8295C15.3715 12.8168 15.3865 12.803 15.4006 12.7886C17.0181 11.4707 18.0556 9.44843 18.0556 7.18449C18.0556 3.22294 14.8798 0 10.9762 0C7.07258 0 3.89661 3.22294 3.89661 7.18444C3.89661 9.47534 4.95865 11.5192 6.60941 12.8356ZM11.6262 13.3179C11.5952 13.3212 11.5641 13.3242 11.533 13.3271C11.4986 13.3303 11.4642 13.3335 11.4296 13.336C11.3696 13.3405 11.3095 13.344 11.2491 13.3467C11.2284 13.3476 11.2078 13.3483 11.1871 13.349C11.117 13.3514 11.0467 13.3532 10.9761 13.3532C10.9065 13.3532 10.8371 13.3515 10.7679 13.3491C10.7475 13.3484 10.7271 13.3477 10.7068 13.3468C10.6492 13.3443 10.5918 13.3409 10.5345 13.3368C10.5012 13.3344 10.4679 13.3314 10.4348 13.3284C10.3988 13.3252 10.3629 13.3218 10.3271 13.318C10.2871 13.3137 10.2472 13.3092 10.2074 13.3041C10.2004 13.3031 10.1934 13.3021 10.1863 13.3012C9.17756 13.1678 8.24577 12.7825 7.45434 12.2097V11.2903C7.45434 10.0804 8.04651 9.00881 8.95153 8.35622C9.51718 8.80482 10.228 9.0732 10.9999 9.0732C11.7717 9.0732 12.4826 8.80488 13.0482 8.35622C13.9532 9.00881 14.5454 10.0804 14.5454 11.2903V12.1745H14.5454C13.7078 12.7933 12.7092 13.2005 11.6262 13.3179ZM10.9762 1.01563C14.328 1.01563 17.0549 3.78291 17.0549 7.18444C17.0549 8.73947 16.4848 10.1618 15.5458 11.2479C15.5325 9.7651 14.8267 8.44727 13.7411 7.61207C14.1141 7.06587 14.3334 6.40383 14.3334 5.69046C14.3334 5.52262 14.3211 5.35383 14.2969 5.18874C14.2562 4.91137 14.0018 4.71997 13.7283 4.76121C13.4549 4.80249 13.2663 5.06077 13.307 5.33819C13.324 5.45392 13.3326 5.57244 13.3326 5.69046C13.3326 6.21366 13.1641 6.69755 12.8798 7.08984C12.6491 7.40814 12.342 7.66575 11.9861 7.83495C11.6864 7.9775 11.3523 8.05763 11 8.05763C10.6477 8.05763 10.3136 7.9775 10.0139 7.83495C9.65799 7.66575 9.3509 7.40814 9.12021 7.08984C8.83589 6.69755 8.66745 6.21371 8.66745 5.69046C8.66745 4.38522 9.71383 3.32333 11 3.32333C11.177 3.32333 11.3533 3.34344 11.5241 3.38321C11.7937 3.44612 12.062 3.27509 12.1237 3.00169C12.1854 2.72833 12.0171 2.45594 11.7478 2.39327C11.5038 2.3365 11.2522 2.30771 11.0001 2.30771C9.16205 2.30771 7.66671 3.82521 7.66671 5.69046C7.66671 6.40383 7.88598 7.06587 8.25893 7.61207C7.16301 8.45525 6.45374 9.79024 6.45374 11.2903V11.3016C5.48667 10.2089 4.89745 8.76527 4.89745 7.18444C4.8974 3.78291 7.62432 1.01563 10.9762 1.01563Z" fill="#52616B"/>
<path d="M12.6142 3.9286C12.6267 3.95907 12.6422 3.98852 12.6602 4.01595C12.6783 4.04388 12.6993 4.06977 12.7223 4.09313C12.7453 4.11705 12.7708 4.13787 12.7984 4.15661C12.8254 4.17489 12.8544 4.19068 12.8849 4.20338C12.915 4.21607 12.9465 4.22567 12.9785 4.23227C13.0105 4.23888 13.0436 4.24192 13.0761 4.24192C13.1086 4.24192 13.1416 4.23882 13.1737 4.23227C13.2057 4.22567 13.2372 4.21607 13.2677 4.20338C13.2978 4.19068 13.3268 4.17489 13.3538 4.15661C13.3813 4.13787 13.4068 4.11705 13.4299 4.09313C13.4529 4.06977 13.4739 4.04388 13.4919 4.01595C13.5099 3.98852 13.5254 3.95907 13.5379 3.9286C13.5505 3.89763 13.5605 3.86614 13.5665 3.83364C13.573 3.80063 13.5765 3.76763 13.5765 3.73411C13.5765 3.7011 13.573 3.66753 13.5665 3.63509C13.5605 3.60259 13.5505 3.57054 13.5379 3.54012C13.5254 3.50971 13.5099 3.47975 13.4919 3.45232C13.4739 3.42434 13.4529 3.39844 13.4299 3.37509C13.4068 3.35173 13.3813 3.3304 13.3538 3.31212C13.3268 3.29389 13.2978 3.27809 13.2677 3.2654C13.2372 3.2527 13.2057 3.2431 13.1737 3.2365C13.1091 3.22325 13.0431 3.22325 12.9785 3.2365C12.9465 3.2431 12.915 3.2527 12.8849 3.2654C12.8544 3.27809 12.8254 3.29389 12.7984 3.31212C12.7708 3.3304 12.7453 3.35173 12.7223 3.37509C12.6993 3.39844 12.6783 3.42434 12.6602 3.45232C12.6422 3.47975 12.6267 3.50971 12.6142 3.54012C12.6017 3.57054 12.5922 3.60259 12.5857 3.63509C12.5792 3.66759 12.5757 3.7011 12.5757 3.73411C12.5757 3.76763 12.5792 3.80063 12.5857 3.83364C12.5922 3.86614 12.6017 3.89763 12.6142 3.9286Z" fill="#52616B"/>
</g>
</svg>
