<svg width="22" height="20" viewBox="0 0 22 20" fill="none" 
    xmlns="http://www.w3.org/2000/svg">
    <path d="M20.3242 3.02057V2.74835C20.3242 2.02599 19.7459 1.4383 19.0352 1.4383C18.3244 1.4383 17.7461 2.02599 17.7461 2.74835V2.96669H16.3729V1.01253C16.3729 0.454237 15.9259 0 15.3765 0H9.28752C8.73817 0 8.29116 0.454237 8.29116 1.01253V2.96669H6.91797V2.74835C6.91797 2.02599 6.3397 1.4383 5.62891 1.4383C4.91812 1.4383 4.33984 2.02599 4.33984 2.74835V3.02057C3.3819 3.24009 2.66406 4.11123 2.66406 5.1501V5.21075V9.09155V11.4487C1.09923 12.1292 0 13.7095 0 15.5458C0 18.0019 1.96612 20 4.38281 20C6.7995 20 8.76562 18.0019 8.76562 15.5458C8.76562 13.0898 6.7995 11.0917 4.38281 11.0917C4.08873 11.0917 3.80145 11.1215 3.52344 11.1779V9.52788L10.4857 9.5233C10.5137 10.5187 11.3185 11.3198 12.3046 11.3198H12.3594C13.3439 11.3198 14.1478 10.5212 14.1782 9.52814H21.1406V15.4585C21.1406 16.1809 20.5624 16.7686 19.8516 16.7686H11.7734C11.5362 16.7686 11.3438 16.9641 11.3438 17.2052C11.3438 17.4464 11.5362 17.6419 11.7734 17.6419H19.8516C21.0362 17.6419 22 16.6624 22 15.4585V9.09151V5.21071V5.15005C22 4.11123 21.2822 3.24005 20.3242 3.02057ZM7.90625 15.5458C7.90625 17.5203 6.32564 19.1266 4.38281 19.1266C2.43998 19.1266 0.859375 17.5203 0.859375 15.5458C0.859375 13.5714 2.43998 11.965 4.38281 11.965C6.32564 11.965 7.90625 13.5714 7.90625 15.5458ZM18.6055 2.74835C18.6055 2.50756 18.7982 2.31166 19.0352 2.31166C19.2721 2.31166 19.4648 2.50756 19.4648 2.74835V2.96669H18.6055V2.74835ZM9.15058 1.01249C9.15058 0.935766 9.21203 0.873321 9.28757 0.873321H15.3765C15.4521 0.873321 15.5135 0.935766 15.5135 1.01249V2.96664H9.15058V1.01249ZM5.19922 2.74835C5.19922 2.50756 5.39198 2.31166 5.62891 2.31166C5.86584 2.31166 6.05859 2.50756 6.05859 2.74835V2.96669H5.19922V2.74835ZM13.3203 9.46993C13.3203 10.0084 12.8893 10.4464 12.3594 10.4464H12.3046C11.7748 10.4464 11.3438 10.0084 11.3438 9.46993V8.08617H13.3204V9.46993H13.3203ZM14.1797 8.65482V7.64949C14.1797 7.40831 13.9873 7.21281 13.75 7.21281H10.9141C10.6768 7.21281 10.4844 7.40831 10.4844 7.64949V8.64993L3.52344 8.65452V5.21071V5.15005C3.52344 4.4277 4.10171 3.84001 4.8125 3.84001H19.8516C20.5624 3.84001 21.1406 4.4277 21.1406 5.15005V5.21071V8.65482H14.1797Z" fill="#52616B"/>
</svg>
