<svg width="22" height="22" viewBox="0 0 22 22" fill="none" xmlns="http://www.w3.org/2000/svg">
<g opacity="0.75">
<path d="M10.9999 5.29688C7.85474 5.29688 5.29626 7.85535 5.29626 11.0005C5.29626 14.1456 7.85474 16.7041 10.9999 16.7041C14.145 16.7041 16.7035 14.1456 16.7035 11.0005C16.7035 7.85535 14.145 5.29688 10.9999 5.29688ZM10.9999 15.8893C8.3041 15.8893 6.11106 13.6962 6.11106 11.0005C6.11106 8.30471 8.3041 6.11167 10.9999 6.11167C13.6956 6.11167 15.8887 8.30471 15.8887 11.0005C15.8887 13.6962 13.6956 15.8893 10.9999 15.8893Z" fill="#52616B"/>
<path d="M20.867 8.5554H20.0449C19.8351 7.77645 19.5267 7.03091 19.1242 6.33222L19.7051 5.75126C19.919 5.53738 20.0367 5.25261 20.0367 4.95032C20.0367 4.64762 19.919 4.36325 19.7051 4.14896L17.8502 2.29407C17.4225 1.86671 16.6765 1.86589 16.2479 2.29407L15.667 2.87502C14.9679 2.47292 14.2227 2.16452 13.4442 1.9547V1.13257C13.4442 0.508028 12.9362 0 12.3116 0H9.68797C9.06343 0 8.5554 0.508028 8.5554 1.13257V1.9547C7.77686 2.16452 7.03172 2.47292 6.33222 2.87543L5.75126 2.29448C5.32309 1.86589 4.57673 1.86671 4.14896 2.29448L2.29407 4.14937C2.08018 4.36325 1.96245 4.64803 1.96245 4.95072C1.96245 5.25301 2.08018 5.53738 2.29407 5.75167L2.87502 6.33262C2.47292 7.03091 2.16411 7.77645 1.9547 8.5554H1.13257C0.508028 8.5554 0 9.06343 0 9.68797V12.3112C0 12.9362 0.508028 13.4442 1.13257 13.4442H1.9547C2.16452 14.2227 2.47292 14.9679 2.87543 15.6674L2.29448 16.2483C2.08059 16.4622 1.96285 16.747 1.96285 17.0493C1.96285 17.352 2.08059 17.6363 2.29448 17.8506L4.14937 19.7055C4.57714 20.1337 5.32349 20.1341 5.75167 19.7055L6.33262 19.1246C7.03213 19.5267 7.77726 19.8355 8.5558 20.0453V20.8674C8.5558 21.492 9.06383 22 9.68838 22H12.3116C12.9362 22 13.4442 21.492 13.4442 20.8674V20.0453C14.2227 19.8355 14.9679 19.5271 15.6674 19.1246L16.2483 19.7055C16.6769 20.1341 17.4225 20.1333 17.8506 19.7055L19.7055 17.8506C19.9194 17.6367 20.0371 17.352 20.0371 17.0493C20.0371 16.747 19.9194 16.4626 19.7055 16.2483L19.1246 15.6674C19.5267 14.9679 19.8355 14.2227 20.0453 13.4442H20.8674C21.492 13.4442 22 12.9362 22 12.3116V9.68797C21.9996 9.06343 21.4916 8.5554 20.867 8.5554ZM21.1848 12.3116C21.1848 12.4868 21.0422 12.6294 20.867 12.6294H19.4036L19.3303 12.9443C19.1181 13.8557 18.7604 14.7206 18.2658 15.5154L18.0947 15.79L19.1291 16.8244C19.2533 16.9487 19.2533 17.1503 19.1291 17.2742L17.2742 19.1291C17.1503 19.2529 16.9487 19.2537 16.8244 19.1291L15.79 18.0947L15.5154 18.2658C14.721 18.7604 13.8561 19.1185 12.9443 19.3303L12.6294 19.4036V20.867C12.6294 21.0422 12.4868 21.1848 12.3116 21.1848H9.68797C9.51279 21.1848 9.3702 21.0422 9.3702 20.867V19.4036L9.05528 19.3303C8.14392 19.1181 7.27901 18.7604 6.48418 18.2658L6.20959 18.0947L5.1752 19.1291C5.05054 19.2537 4.84887 19.2529 4.72543 19.1291L2.87054 17.2742C2.74628 17.1499 2.74628 16.9482 2.87054 16.8244L3.90493 15.79L3.73382 15.5154C3.23924 14.721 2.88113 13.8561 2.66928 12.9443L2.59595 12.6294H1.13257C0.95739 12.6294 0.8148 12.4868 0.8148 12.3116V9.68797C0.8148 9.51279 0.95739 9.3702 1.13257 9.3702H2.59595L2.66928 9.05528C2.88154 8.14352 3.23924 7.27861 3.73382 6.48418L3.90493 6.20959L2.87054 5.1752C2.74628 5.05094 2.74628 4.84928 2.87054 4.72543L4.72543 2.87054C4.84928 2.74669 5.05094 2.74588 5.1752 2.87054L6.20959 3.90493L6.48418 3.73382C7.27861 3.23924 8.14352 2.88113 9.05528 2.66928L9.3702 2.59595V1.13257C9.3702 0.95739 9.51279 0.8148 9.68797 0.8148H12.3112C12.4868 0.8148 12.6294 0.95739 12.6294 1.13257V2.59595L12.9443 2.66928C13.8557 2.88154 14.7206 3.23924 15.5154 3.73382L15.79 3.90493L16.8244 2.87054C16.9491 2.74588 17.1507 2.74669 17.2742 2.87054L19.1291 4.72543C19.2533 4.84969 19.2533 5.05135 19.1291 5.1752L18.0947 6.20959L18.2658 6.48418C18.7604 7.2782 19.1185 8.14311 19.3303 9.05528L19.4036 9.3702H20.867C21.0422 9.3702 21.1848 9.51279 21.1848 9.68797V12.3116Z" fill="#52616B"/>
<path d="M10.9999 6.92578C8.7535 6.92578 6.9259 8.75338 6.9259 10.9998C6.9259 13.2462 8.7535 15.0738 10.9999 15.0738C13.2463 15.0738 15.0739 13.2462 15.0739 10.9998C15.0739 8.75338 13.2463 6.92578 10.9999 6.92578ZM10.9999 14.259C9.20286 14.259 7.7407 12.7968 7.7407 10.9998C7.7407 9.20274 9.20286 7.74058 10.9999 7.74058C12.7969 7.74058 14.2591 9.20274 14.2591 10.9998C14.2591 12.7968 12.7969 14.259 10.9999 14.259Z" fill="#52616B"/>
</g>
</svg>
