<svg width="22" height="20" viewBox="0 0 22 20" fill="none" xmlns="http://www.w3.org/2000/svg">
<g opacity="0.75">
<path d="M5.41686 5.05171C4.95722 5.05171 4.58343 4.67402 4.58343 4.2096C4.58343 3.74518 4.95722 3.3675 5.41686 3.3675C5.8765 3.3675 6.25029 3.74518 6.25029 4.2096H7.08372C7.08372 3.28076 6.33613 2.52539 5.41686 2.52539C4.49759 2.52539 3.75 3.28076 3.75 4.2096C3.75 5.13844 4.49759 5.89381 5.41686 5.89381C5.8765 5.89381 6.25029 6.2715 6.25029 6.73592C6.25029 7.20034 5.8765 7.57802 5.41686 7.57802C4.95722 7.57802 4.58343 7.20034 4.58343 6.73592H3.75C3.75 7.66476 4.49759 8.42013 5.41686 8.42013C6.33613 8.42013 7.08372 7.66476 7.08372 6.73592C7.08372 5.80707 6.33613 5.05171 5.41686 5.05171Z" fill="#52616B"/>
<path d="M5.83441 1.68359H5.00098V2.94675H5.83441V1.68359Z" fill="#52616B"/>
<path d="M5.83441 8H5.00098V9.26316H5.83441V8Z" fill="#52616B"/>
<path d="M15.002 17.4746V18.3167H15.8354V19.1588H10.0014V18.3167H14.1686V17.4746H9.16797V20.0009H16.6688V17.4746H15.002Z" fill="#52616B"/>
<path d="M9.16797 15.7891V17.8943H10.0014V16.6312H15.8354V17.8943H16.6688V15.7891H9.16797Z" fill="#52616B"/>
<path d="M9.16797 14.1055V16.6318H16.6688V14.1055H9.16797ZM15.8354 15.7897H10.0014V14.9476H15.8354V15.7897Z" fill="#52616B"/>
<path d="M17.1767 3.47461C16.6449 3.47461 16.2121 3.9119 16.2121 4.44925C16.2121 4.9866 16.6449 5.42389 17.1767 5.42389H18.6513L13.9151 10.2097L11.3682 8.60122L2.1875 15.8873L2.58492 16.3983L11.41 9.39425L14.0077 11.0346L20.2037 4.77413H17.1767C16.9993 4.77413 16.8552 4.62826 16.8552 4.44925C16.8552 4.27024 16.9993 4.12437 17.1767 4.12437H21.3567V8.34781C21.3567 8.52682 21.2126 8.67269 21.0351 8.67269C20.8577 8.67269 20.7136 8.52682 20.7136 8.34781V5.61427L14.227 12.1681L11.3567 10.557L3.14985 17.1907L3.55177 17.6982L11.4216 11.3367L14.3389 12.9744L20.0705 7.18279V8.34781C20.0705 8.88516 20.5033 9.32245 21.0351 9.32245C21.567 9.32245 21.9997 8.88516 21.9997 8.34781V3.47461H17.1767Z" fill="#52616B"/>
<path d="M9.16741 5.05273H8.33398V5.89484H9.16741V5.05273Z" fill="#52616B"/>
<path d="M5.4173 0C2.43028 0 0 2.45558 0 5.47368C0 8.49179 2.43028 10.9474 5.4173 10.9474C8.40431 10.9474 10.8346 8.49179 10.8346 5.47368C10.8346 2.45558 8.40431 0 5.4173 0ZM5.4173 10.1053C2.88992 10.1053 0.83343 8.02737 0.83343 5.47368C0.83343 2.92 2.88992 0.842105 5.4173 0.842105C7.94467 0.842105 10.0012 2.92 10.0012 5.47368C10.0012 8.02737 7.94467 10.1053 5.4173 10.1053Z" fill="#52616B"/>
</g>
</svg>
