<svg width="22" height="24" viewBox="0 0 22 24" fill="none" 
    xmlns="http://www.w3.org/2000/svg">
    <path d="M17.4384 17.0467L15.1653 16.3042L14.3492 14.7045C15.0844 13.9711 15.5948 13.0007 15.767 11.9885L15.8687 11.3906H16.7391C17.5303 11.3906 18.1739 10.7598 18.1739 9.98438V7.03125C18.1739 3.15422 14.9557 0 11 0C7.03416 0 3.82609 3.14517 3.82609 7.03125V9.98438C3.82609 10.5954 4.22596 11.1165 4.78261 11.31V11.8594C4.78261 12.6348 5.42625 13.2656 6.21739 13.2656H6.6374C6.84473 13.707 7.11308 14.1159 7.43963 14.4832C7.50736 14.5595 7.578 14.6334 7.65036 14.7054L6.83473 16.3042L4.56151 17.0467C1.9184 17.9106 0 20.6377 0 23.5312C0 23.7901 0.214117 24 0.478261 24H21.5217C21.7858 24 22 23.7901 22 23.5312C22 20.6377 20.0816 17.9106 17.4384 17.0467ZM17.2174 9.98438C17.2174 10.2428 17.0028 10.4531 16.7391 10.4531H16.0092C16.1308 9.53016 16.2118 8.54798 16.2444 7.58063C16.2453 7.55334 16.2461 7.52681 16.247 7.5H17.2174V9.98438ZM5.26087 10.4531C4.99716 10.4531 4.78261 10.2428 4.78261 9.98438V7.5H5.75338C5.75496 7.54889 5.75663 7.59802 5.7585 7.64747C5.75855 7.64916 5.75864 7.6508 5.75869 7.65248C5.75869 7.65263 5.75869 7.65277 5.75869 7.65291C5.79217 8.59378 5.87213 9.55045 5.99093 10.4531H5.26087V10.4531ZM6.21739 12.3281C5.95368 12.3281 5.73913 12.1178 5.73913 11.8594V11.3906H6.13121L6.23298 11.9887C6.2524 12.1024 6.27627 12.2156 6.30386 12.3281H6.21739ZM5.73994 6.5625H4.80078C5.04302 3.42089 7.71803 0.9375 11 0.9375C14.2674 0.9375 16.9542 3.42056 17.1992 6.5625H16.2601C16.2257 3.97373 14.0748 1.875 11.4281 1.875H10.572C7.92536 1.875 5.77433 3.97373 5.73994 6.5625ZM10.572 2.8125H11.428C13.5711 2.8125 15.3056 4.53052 15.3043 6.62859C15.3043 6.77611 15.3032 6.90455 15.3006 7.02141C15.3006 7.02291 15.3006 7.02445 15.3006 7.026L14.7024 6.94223C13.0772 6.7148 11.5428 5.96283 10.3817 4.8248C10.2919 4.73691 10.1703 4.6875 10.0435 4.6875C8.75906 4.6875 7.52955 5.26106 6.71679 6.23006C6.91709 4.32136 8.5634 2.8125 10.572 2.8125ZM7.29539 12.3281C7.05597 11.5475 6.78203 9.25064 6.72148 7.77877L7.36517 6.93755C7.95635 6.16523 8.87609 5.68537 9.85447 5.6303C11.1418 6.83105 12.8072 7.62398 14.5671 7.87027L15.2712 7.96889C15.2241 8.94788 15.128 9.93028 14.9902 10.8338C14.9901 10.8341 14.9901 10.8344 14.99 10.8347C14.9462 11.1252 14.9117 11.3122 14.8235 11.8343C14.5702 13.3233 13.4366 14.6698 11.9402 15.0365C11.3244 15.1872 10.6755 15.1871 10.06 15.0365C9.12565 14.8075 8.26889 14.1739 7.71597 13.2656H8.69096C8.88838 13.8112 9.41997 14.2031 10.0435 14.2031H11C11.7927 14.2031 12.4348 13.5739 12.4348 12.7969C12.4348 12.0215 11.7911 11.3906 11 11.3906H10.0435C9.4061 11.3906 8.88236 11.7941 8.69014 12.3281H7.29539ZM10.0033 15.9851C10.3313 16.0529 10.6657 16.0875 11 16.0875C11.2617 16.0875 11.5234 16.066 11.7821 16.0244L10.937 16.9004L10.0033 15.9851ZM10.2795 17.5818L8.76255 19.1541C8.34493 18.3706 7.9861 17.5553 7.69177 16.7205L8.26143 15.6038L10.2795 17.5818ZM13.6575 15.445L14.3081 16.7205C14.0133 17.5566 13.6544 18.3723 13.2372 19.1548L11.6136 17.5635L13.6575 15.445ZM9.56522 12.7969C9.56522 12.5381 9.77938 12.3281 10.0435 12.3281H11C11.2637 12.3281 11.4783 12.5384 11.4783 12.7969C11.4783 13.0557 11.264 13.2656 11 13.2656H10.0435C9.77977 13.2656 9.56522 13.0553 9.56522 12.7969ZM0.975652 23.0625C1.16519 20.7404 2.74197 18.6297 4.86401 17.9361L6.8772 17.2785C7.24603 18.2782 7.70297 19.2497 8.23847 20.1726C8.23938 20.1742 8.24024 20.1758 8.24115 20.1773C8.24115 20.1774 8.2412 20.1774 8.2412 20.1774C8.63246 20.8519 9.07285 21.511 9.5503 22.1368L10.1387 23.0625H0.975652ZM11 22.6447L10.3514 21.624C10.3441 21.6126 10.3364 21.6015 10.3281 21.5907C9.94084 21.0844 9.57957 20.5548 9.25052 20.0128L10.9561 18.245L12.7534 20.0064C12.4221 20.5524 12.0596 21.0841 11.672 21.5906C11.6485 21.6212 11.6818 21.573 11 22.6447ZM11.8613 23.0625L12.4497 22.1368C12.9292 21.5087 13.3727 20.8443 13.7679 20.1619C13.7703 20.1577 13.7726 20.1535 13.775 20.1494C13.7753 20.1489 13.7755 20.1484 13.7758 20.1479C14.3045 19.2338 14.7567 18.2707 15.1228 17.2785L17.1359 17.9361C19.258 18.6297 20.8348 20.7404 21.0243 23.0625H11.8613Z" fill="#52616B"/>
</svg>

