<svg width="22" height="22" viewBox="0 0 22 22" fill="none" 
    xmlns="http://www.w3.org/2000/svg">
    <path d="M16.6464 7.48555C16.5942 7.35946 16.5301 7.24064 16.4555 7.13042H17.5742C18.664 7.13042 19.5507 6.23321 19.5507 5.13042C19.5507 4.02764 18.664 3.13043 17.5742 3.13043H14.1333C14.352 2.8086 14.4804 2.41926 14.4804 2C14.4804 0.897216 13.5937 0 12.5039 0H1.97656C0.886701 0 0 0.897216 0 2C0 3.10278 0.886701 3.99999 1.97656 3.99999H5.41749C5.19874 4.32182 5.0703 4.71116 5.0703 5.13042C5.0703 5.54969 5.19869 5.93903 5.41749 6.26086H4.29687C3.20701 6.26086 2.32031 7.15807 2.32031 8.26085C2.32031 8.8942 2.6131 9.45937 3.06861 9.82607C2.6131 10.1928 2.32031 10.7579 2.32031 11.3913C2.32031 12.0246 2.6131 12.5898 3.06861 12.9565C2.6131 13.3232 2.32031 13.8884 2.32031 14.5217C2.32031 15.1551 2.6131 15.7202 3.06861 16.0869C2.6131 16.4536 2.32031 17.0188 2.32031 17.6521C2.32031 18.7549 3.20701 19.6521 4.29687 19.6521H9.36072C10.6947 21.0959 12.5925 22 14.6953 22C18.7231 22 22 18.6843 22 14.6087C22 11.2167 19.73 8.35142 16.6464 7.48555ZM17.5742 3.99999C18.1902 3.99999 18.6914 4.50712 18.6914 5.13042C18.6914 5.75373 18.1902 6.26086 17.5742 6.26086H14.8242H7.04686C6.43082 6.26086 5.92968 5.75373 5.92968 5.13042C5.92968 4.50712 6.43082 3.99999 7.04686 3.99999H17.5742ZM1.97656 3.13043C1.36052 3.13043 0.859373 2.6233 0.859373 2C0.859373 1.37669 1.36052 0.869564 1.97656 0.869564H12.5039C13.1199 0.869564 13.6211 1.37669 13.6211 2C13.6211 2.6233 13.1199 3.13043 12.5039 3.13043H1.97656ZM4.29687 7.13042H14.8242C14.9973 7.13042 15.163 7.17112 15.3117 7.24399C15.1084 7.22673 14.903 7.21742 14.6953 7.21742C12.6782 7.21742 10.8494 8.04911 9.52624 9.39129H4.29687C3.68087 9.39129 3.17968 8.88416 3.17968 8.26085C3.17968 7.63755 3.68087 7.13042 4.29687 7.13042ZM4.29687 10.2608H8.79203C8.30425 10.9371 7.92712 11.6998 7.68761 12.5217H4.29687C3.68082 12.5217 3.17968 12.0146 3.17968 11.3913C3.17968 10.768 3.68082 10.2608 4.29687 10.2608ZM4.29687 13.3913H7.4903C7.42512 13.7875 7.39065 14.1941 7.39065 14.6087C7.39065 14.9629 7.41596 15.3111 7.46379 15.6521H4.29687C3.68082 15.6521 3.17968 15.1451 3.17968 14.5217C3.17968 13.8984 3.68082 13.3913 4.29687 13.3913ZM4.29687 18.7826C3.68082 18.7826 3.17968 18.2755 3.17968 17.6521C3.17968 17.0288 3.68082 16.5217 4.29687 16.5217H7.63923C7.85605 17.3397 8.20826 18.102 8.67018 18.7826H4.29687ZM14.6953 21.1304C11.1414 21.1304 8.25003 18.2048 8.25003 14.6087C8.25003 11.0126 11.1414 8.08698 14.6953 8.08698C18.2493 8.08698 21.1406 11.0126 21.1406 14.6087C21.1406 18.2048 18.2493 21.1304 14.6953 21.1304Z" fill="#52616B"/>
</svg>
