<svg width="16" height="19" viewBox="0 0 16 19" fill="none" xmlns="http://www.w3.org/2000/svg">
<path d="M0.908708 13.0892C1.37205 12.6415 1.62825 12.0603 1.6278 11.4578V7.82786C1.63016 6.41391 2.25272 5.05409 3.36832 4.02619C4.48392 2.99829 6.00837 2.37987 7.63025 2.29727V1.09914C7.63025 1.0138 7.6692 0.931946 7.73855 0.871597C7.80789 0.811248 7.90193 0.777344 8 0.777344C8.09806 0.777344 8.19211 0.811248 8.26146 0.871597C8.3308 0.931946 8.36975 1.0138 8.36975 1.09914V2.29058C9.25558 2.33525 10.121 2.54015 10.9107 2.89222C10.9558 2.91051 10.9961 2.93653 11.0293 2.96871C11.0626 3.00089 11.088 3.03857 11.1041 3.0795C11.1203 3.12043 11.1267 3.16377 11.1232 3.20693C11.1196 3.25008 11.1061 3.29217 11.0834 3.33067C11.0607 3.36917 11.0293 3.4033 10.9911 3.431C10.9529 3.45871 10.9087 3.47943 10.8611 3.49192C10.8135 3.50442 10.7635 3.50843 10.7141 3.50372C10.6647 3.49901 10.6169 3.48567 10.5735 3.46451C9.77805 3.10692 8.89528 2.92148 8 2.92388C6.50647 2.92531 5.07459 3.44236 4.01859 4.36155C2.96259 5.28074 2.36872 6.527 2.36731 7.82683V11.4567C2.36796 12.2181 2.04431 12.9527 1.4589 13.5186C0.995436 13.9663 0.739123 14.5476 0.739508 15.1502V16.1319H15.2605V15.4728H2.44038C2.34231 15.4728 2.24826 15.4389 2.17892 15.3786C2.10958 15.3182 2.07062 15.2364 2.07062 15.151C2.07062 15.0657 2.10958 14.9838 2.17892 14.9235C2.24826 14.8631 2.34231 14.8292 2.44038 14.8292H15.2333C15.1599 14.3419 14.9188 13.8854 14.5417 13.5196C13.9561 12.9538 13.6324 12.2192 13.633 11.4578V7.82786C13.6338 6.63359 13.1331 5.48024 12.225 4.58489C12.1928 4.55319 12.1682 4.5163 12.1525 4.47632C12.1367 4.43634 12.1302 4.39405 12.1332 4.35187C12.1362 4.30969 12.1488 4.26844 12.1701 4.23048C12.1915 4.19252 12.2212 4.15859 12.2576 4.13063C12.2941 4.10267 12.3365 4.08123 12.3824 4.06753C12.4283 4.05383 12.4769 4.04814 12.5254 4.05078C12.5739 4.05342 12.6212 4.06434 12.6649 4.08292C12.7085 4.10151 12.7475 4.12738 12.7796 4.15908C13.8065 5.17182 14.3728 6.47616 14.3722 7.82683V11.4567C14.3717 12.0592 14.628 12.6405 15.0913 13.0881C15.6768 13.654 16.0006 14.3887 16 15.1502V16.4537C16 16.539 15.961 16.6209 15.8917 16.6812C15.8224 16.7416 15.7283 16.7755 15.6302 16.7755H10.3839C10.2962 17.271 10.0076 17.7228 9.57038 18.0493C9.13313 18.3757 8.57608 18.5551 8 18.5551C7.42392 18.5551 6.86687 18.3757 6.42962 18.0493C5.99237 17.7228 5.7038 17.271 5.61612 16.7755H0.369754C0.271688 16.7755 0.17764 16.7416 0.108297 16.6812C0.0389547 16.6209 0 16.539 0 16.4537V15.1502C-0.000232697 14.3891 0.323495 13.6548 0.908708 13.0892ZM8 17.9126C8.38008 17.9122 8.74876 17.7995 9.0457 17.5931C9.34265 17.3866 9.55027 17.0985 9.63461 16.776H6.36539C6.44982 17.0985 6.65748 17.3865 6.9544 17.593C7.25132 17.7994 7.61995 17.9121 8 17.9126Z" fill="#738C9D"/>
</svg>
