<svg width="18" height="18" viewBox="0 0 18 18" fill="none" xmlns="http://www.w3.org/2000/svg">
<path d="M9 0C13.9655 0 18 4.03448 18 9C18 13.9655 13.9655 18 9 18C4.03448 18 0 13.9655 0 9C0 4.03448 4.03448 0 9 0ZM16.8916 9C16.8916 4.65517 13.3448 1.10837 9 1.10837C4.65517 1.10837 1.10837 4.65517 1.10837 9C1.10837 13.3448 4.65517 16.8916 9 16.8916C13.3448 16.8916 16.8916 13.3448 16.8916 9Z" fill="#738C9D"/>
<path d="M7.03152 4.16163C7.0866 4.14335 7.14167 4.12508 7.19674 4.12508C7.38032 4.12508 7.56389 4.23472 7.61896 4.41745C7.71075 4.65499 7.58225 4.91081 7.3436 5.00218C5.21413 5.80618 4.13103 8.18165 4.92041 10.3013C5.30592 11.3246 6.07693 12.1469 7.06824 12.6037C8.0779 13.0605 9.19771 13.0971 10.2257 12.7133C11.3088 12.3113 12.1716 11.489 12.6122 10.4292L11.3272 10.4475L13.1079 7.24974L14.9987 10.3744L13.6035 10.3927C13.1262 11.8545 12.0248 13.0057 10.5562 13.5539C9.2895 14.029 7.91268 13.9742 6.70109 13.4077C5.47113 12.8412 4.5349 11.8545 4.07596 10.5937C3.08466 8.03547 4.42476 5.13009 7.03152 4.16163Z" fill="#738C9D"/>
</svg>
