<svg width="16" height="17" viewBox="0 0 16 17" fill="none" xmlns="http://www.w3.org/2000/svg">
<path d="M7.97906 0C4.27225 0 1.13089 2.53403 0.230367 5.98953C0.230367 6.01047 0.230367 6.01047 0.230367 6.03141C0.188482 6.15707 0.167539 6.30367 0.146597 6.45026C0.146597 6.49215 0.125655 6.55497 0.125655 6.59686C0.104712 6.70157 0.0837698 6.80628 0.0837698 6.911C0.0837698 6.97382 0.0628273 7.01571 0.0628273 7.07854C0.0418849 7.18325 0.041885 7.28796 0.041885 7.41361C0.041885 7.4555 0.0418849 7.49738 0.0209425 7.56021C0.0209425 7.70681 0 7.87435 0 8.02094C0 8.18848 7.95769e-08 8.33508 0.0209425 8.48168C0.0209425 8.52356 0.0209426 8.56544 0.041885 8.62827C0.041885 8.73298 0.0628273 8.85864 0.0837698 8.96335C0.0837698 9.02618 0.104712 9.06806 0.104712 9.10995C0.125654 9.21466 0.146597 9.31937 0.146597 9.42408C0.146597 9.46597 0.167539 9.5288 0.167539 9.57068C0.188482 9.71728 0.230367 9.84293 0.251309 9.98953C0.251309 10.0105 0.251309 10.0105 0.251309 10.0314C1.15183 13.466 4.27225 16.0209 8 16.0209C12.4188 16.0209 16 12.4398 16 8.02094C16 3.60209 12.3979 0 7.97906 0ZM7.22513 9.54974H0.921466C0.921466 9.5288 0.921466 9.5288 0.900524 9.50785C0.879581 9.44503 0.879581 9.3822 0.858639 9.31937C0.837696 9.25655 0.837696 9.19372 0.816754 9.15183C0.795812 9.06806 0.795812 9.00524 0.795812 8.92147C0.795812 8.87958 0.774869 8.8377 0.774869 8.77487C0.774869 8.6911 0.753927 8.58639 0.753927 8.50262C0.753927 8.46073 0.753927 8.43979 0.753927 8.39791C0.753927 8.27225 0.753927 8.1466 0.753927 8.02094C0.753927 7.89529 0.753927 7.76963 0.753927 7.64398C0.753927 7.60209 0.753927 7.58115 0.753927 7.53927C0.753927 7.4555 0.774869 7.35079 0.774869 7.26702C0.774869 7.22513 0.795812 7.1623 0.795812 7.12042C0.795812 7.03665 0.816754 6.97382 0.816754 6.89005C0.816754 6.82723 0.837696 6.7644 0.858639 6.70157C0.879581 6.63874 0.879581 6.57592 0.900524 6.51309C0.900524 6.49215 0.900523 6.49215 0.921466 6.4712H7.22513C7.43455 6.4712 7.60209 6.30367 7.60209 6.09424V4.62827L11.0576 7.97906C11.0785 8 11.0785 8.02094 11.0995 8.02094C11.0995 8.02094 11.0995 8.04189 11.0576 8.06283L7.62304 11.3927V9.9267C7.62304 9.71728 7.43455 9.54974 7.22513 9.54974ZM7.97906 15.2461C4.79581 15.2461 2.09424 13.1728 1.13089 10.3246H6.84817V11.9791C6.84817 12 6.84817 12 6.84817 12.0209C6.89005 12.3979 7.14136 12.5236 7.32984 12.5236C7.56021 12.5236 7.70681 12.377 7.76963 12.3141L11.6021 8.60733C11.8325 8.39791 11.8743 8.16754 11.8743 8.02094C11.8743 7.70681 11.6859 7.49738 11.6021 7.41361L7.74869 3.68586C7.68586 3.64398 7.53927 3.47644 7.3089 3.47644C7.12042 3.47644 6.89005 3.60209 6.82722 3.93717C6.82722 3.95812 6.82722 3.97906 6.82722 4V5.71728H1.13089C2.09424 2.84817 4.79581 0.774869 7.97906 0.774869C11.9581 0.774869 15.2042 4.02094 15.2042 8C15.2042 11.9791 11.9581 15.2461 7.97906 15.2461Z" fill="#52616B"/>
</svg>
