<svg width="22" height="14" viewBox="0 0 22 14" fill="none" xmlns="http://www.w3.org/2000/svg">
<path d="M21.9886 1.87076C21.9886 1.41848 21.8032 1.00929 21.5074 0.69731C21.5025 0.691113 21.5014 0.683809 21.4961 0.677578C21.4911 0.672108 21.4843 0.669892 21.479 0.664804C21.1427 0.325753 20.6687 0.111328 20.1409 0.111328H1.84809C1.32029 0.111328 0.84631 0.325753 0.509223 0.664804C0.504301 0.669892 0.497079 0.672108 0.492157 0.677958C0.48684 0.683809 0.485726 0.69146 0.480803 0.697691C0.18543 1.00967 0 1.41848 0 1.87076V12.2405C0 12.7038 0.193011 13.1228 0.501642 13.4374C0.507714 13.4439 0.509619 13.452 0.516445 13.4582C0.518709 13.4604 0.521367 13.4607 0.523667 13.4629C0.859999 13.7932 1.32826 14 1.84812 14H20.1409C20.6608 14 21.1294 13.7929 21.4654 13.4626C21.4676 13.4608 21.4703 13.4601 21.4726 13.4582C21.479 13.4524 21.4809 13.4443 21.487 13.4381C21.796 13.1236 21.989 12.7042 21.989 12.2405V1.87076H21.9886ZM14.7916 6.50762L21.1283 1.44513C21.1905 1.57519 21.2272 1.71875 21.2272 1.87073V12.2405C21.2272 12.3779 21.1977 12.5083 21.1465 12.6285L14.7916 6.50762ZM20.1409 0.836475C20.3005 0.836475 20.4511 0.871543 20.5879 0.93074L10.9945 8.59444L1.40106 0.93074C1.53795 0.871578 1.68849 0.836475 1.84809 0.836475H20.1409ZM0.842538 12.6282C0.791339 12.5083 0.761769 12.3776 0.761769 12.2402V1.87076C0.761769 1.71879 0.798561 1.57519 0.860718 1.44517L7.19746 6.50766L0.842538 12.6282ZM1.84809 13.2744C1.67218 13.2744 1.50834 13.2306 1.36125 13.1597L7.78289 6.97493L10.7499 9.34527C10.8204 9.40191 10.9076 9.4304 10.9945 9.4304C11.0813 9.4304 11.1685 9.40191 11.2391 9.34527L14.2061 6.97493L20.6277 13.1597C20.4806 13.2306 20.3168 13.2744 20.1409 13.2744H1.84809Z" fill="#738C9D"/>
</svg>
