<svg width="16" height="16" viewBox="0 0 16 16" fill="none" xmlns="http://www.w3.org/2000/svg">
<path d="M8.01894 4.53906C6.61942 4.53906 5.48466 5.67381 5.48466 7.07334C5.48466 8.47287 6.61942 9.60762 8.01894 9.60762C9.41847 9.60762 10.5532 8.47287 10.5532 7.07334C10.5532 5.67381 9.41847 4.53906 8.01894 4.53906ZM8.01894 5.29556C9.0024 5.29556 9.79672 6.08989 9.79672 7.07334C9.79672 8.05679 9.0024 8.85112 8.01894 8.85112C7.03549 8.85112 6.20334 8.05679 6.20334 7.07334C6.20334 6.08989 7.03549 5.29556 8.01894 5.29556Z" fill="white"/>
<path d="M8.01891 0C3.59338 0 0 3.59338 0 7.98109C0 12.4066 3.59338 16 8.01891 16C12.4066 16 16 12.4066 16 7.98109C16 3.59338 12.4066 0 8.01891 0ZM8.01891 0.794326C11.9905 0.794326 15.2057 4.00946 15.2057 7.98109C15.2057 11.9527 11.9905 15.1678 8.01891 15.1678C4.04728 15.1678 0.832151 11.9527 0.832151 7.98109C0.832151 4.00946 4.04728 0.794326 8.01891 0.794326Z" fill="white"/>
<path d="M9.9859 9.87305H6.05209C4.76604 9.87305 3.74477 10.8943 3.70694 12.1426L4.42562 12.7856V12.2182C4.42562 11.3482 5.14429 10.6295 6.05209 10.6295H9.9859C10.8559 10.6295 11.5746 11.3482 11.5746 12.2182V12.7856L12.3311 12.1426C12.2554 10.8943 11.2341 9.87305 9.9859 9.87305Z" fill="white"/>
</svg>
