<svg width="16" height="16" viewBox="0 0 16 16" fill="none" xmlns="http://www.w3.org/2000/svg">
<path d="M16 14.8926L10.7571 9.57714C11.4714 8.58049 11.8964 7.35522 11.8964 6.03349C11.8964 2.70775 9.22857 3.47596e-06 5.95 3.47596e-06C2.66786 -0.00356875 0 2.70418 0 6.02992C0 9.35566 2.66786 12.0634 5.94643 12.0634C7.36786 12.0634 8.67143 11.5562 9.69643 10.7095L14.9107 16L16 14.8926ZM5.94643 10.6702C3.425 10.6702 1.37143 8.58763 1.37143 6.02992C1.37143 3.47221 3.425 1.3896 5.94643 1.3896C8.46786 1.3896 10.5214 3.47221 10.5214 6.02992C10.5214 8.58763 8.47143 10.6702 5.94643 10.6702Z" fill="#0E7BE4"/>
</svg>
