<svg width="16" height="16" viewBox="0 0 16 16" fill="none" xmlns="http://www.w3.org/2000/svg">
<path d="M8.00012 3.85156C5.71276 3.85156 3.85205 5.71227 3.85205 7.99963C3.85205 10.287 5.71276 12.1477 8.00012 12.1477C10.2875 12.1477 12.1482 10.287 12.1482 7.99963C12.1482 5.71227 10.2875 3.85156 8.00012 3.85156ZM8.00012 11.5551C6.03957 11.5551 4.44463 9.96019 4.44463 7.99963C4.44463 6.03908 6.03957 4.44414 8.00012 4.44414C9.96068 4.44414 11.5556 6.03908 11.5556 7.99963C11.5556 9.96019 9.96068 11.5551 8.00012 11.5551Z" fill="#52616B"/>
<path d="M15.176 6.22211H14.5781C14.4255 5.6556 14.2012 5.11339 13.9085 4.60525L14.331 4.18274C14.4865 4.02718 14.5722 3.82008 14.5722 3.60023C14.5722 3.38009 14.4865 3.17327 14.331 3.01743L12.982 1.66841C12.6709 1.3576 12.1284 1.35701 11.8167 1.66841L11.3942 2.09092C10.8857 1.79849 10.3438 1.57419 9.7776 1.4216V0.823688C9.7776 0.369475 9.40812 0 8.95391 0H7.0458C6.59158 0 6.22211 0.369475 6.22211 0.823688V1.4216C5.6559 1.57419 5.11398 1.79849 4.60525 2.09122L4.18274 1.66871C3.87134 1.35701 3.32853 1.3576 3.01743 1.66871L1.66841 3.01772C1.51286 3.17327 1.42723 3.38038 1.42723 3.60053C1.42723 3.82037 1.51286 4.02718 1.66841 4.18303L2.09092 4.60554C1.79849 5.11339 1.5739 5.6556 1.4216 6.22211H0.823688C0.369475 6.22211 0 6.59158 0 7.0458V8.95361C0 9.40812 0.369475 9.7776 0.823688 9.7776H1.4216C1.57419 10.3438 1.79849 10.8857 2.09122 11.3945L1.66871 11.817C1.51316 11.9725 1.42753 12.1796 1.42753 12.3995C1.42753 12.6196 1.51316 12.8264 1.66871 12.9823L3.01772 14.3313C3.32883 14.6427 3.87163 14.643 4.18303 14.3313L4.60554 13.9088C5.11428 14.2012 5.65619 14.4258 6.2224 14.5784V15.1763C6.2224 15.6305 6.59188 16 7.04609 16H8.95391C9.40812 16 9.7776 15.6305 9.7776 15.1763V14.5784C10.3438 14.4258 10.8857 14.2015 11.3945 13.9088L11.817 14.3313C12.1287 14.643 12.6709 14.6424 12.9823 14.3313L14.3313 12.9823C14.4868 12.8267 14.5725 12.6196 14.5725 12.3995C14.5725 12.1796 14.4868 11.9728 14.3313 11.817L13.9088 11.3945C14.2012 10.8857 14.4258 10.3438 14.5784 9.7776H15.1763C15.6305 9.7776 16 9.40812 16 8.95391V7.0458C15.9997 6.59158 15.6302 6.22211 15.176 6.22211ZM15.4071 8.95391C15.4071 9.08131 15.3034 9.18502 15.176 9.18502H14.1117L14.0584 9.41405C13.904 10.0769 13.6439 10.7059 13.2842 11.2839L13.1598 11.4836L13.912 12.2359C14.0024 12.3263 14.0024 12.473 13.912 12.563L12.563 13.912C12.473 14.0021 12.3263 14.0027 12.2359 13.912L11.4836 13.1598L11.2839 13.2842C10.7062 13.6439 10.0771 13.9043 9.41405 14.0584L9.18502 14.1117V15.176C9.18502 15.3034 9.08131 15.4071 8.95391 15.4071H7.0458C6.91839 15.4071 6.81469 15.3034 6.81469 15.176V14.1117L6.58566 14.0584C5.92285 13.904 5.29383 13.6439 4.71576 13.2842L4.51606 13.1598L3.76378 13.912C3.67312 14.0027 3.52645 14.0021 3.43668 13.912L2.08767 12.563C1.9973 12.4727 1.9973 12.326 2.08767 12.2359L2.83995 11.4836L2.71551 11.2839C2.35581 10.7062 2.09537 10.0771 1.9413 9.41405L1.88797 9.18502H0.823688C0.696283 9.18502 0.592582 9.08131 0.592582 8.95391V7.0458C0.592582 6.91839 0.696283 6.81469 0.823688 6.81469H1.88797L1.9413 6.58566C2.09566 5.92256 2.35581 5.29353 2.71551 4.71576L2.83995 4.51606L2.08767 3.76378C1.9973 3.67341 1.9973 3.52675 2.08767 3.43668L3.43668 2.08767C3.52675 1.99759 3.67341 1.997 3.76378 2.08767L4.51606 2.83995L4.71576 2.71551C5.29353 2.35581 5.92256 2.09537 6.58566 1.9413L6.81469 1.88797V0.823688C6.81469 0.696283 6.91839 0.592582 7.0458 0.592582H8.95361C9.08131 0.592582 9.18502 0.696283 9.18502 0.823688V1.88797L9.41405 1.9413C10.0769 2.09566 10.7059 2.35581 11.2839 2.71551L11.4836 2.83995L12.2359 2.08767C12.3266 1.997 12.4733 1.99759 12.563 2.08767L13.912 3.43668C14.0024 3.52705 14.0024 3.67371 13.912 3.76378L13.1598 4.51606L13.2842 4.71576C13.6439 5.29324 13.9043 5.92226 14.0584 6.58566L14.1117 6.81469H15.176C15.3034 6.81469 15.4071 6.91839 15.4071 7.0458V8.95391Z" fill="#52616B"/>
<path d="M8.00002 5.03711C6.36627 5.03711 5.03711 6.36627 5.03711 8.00002C5.03711 9.63377 6.36627 10.9629 8.00002 10.9629C9.63377 10.9629 10.9629 9.63377 10.9629 8.00002C10.9629 6.36627 9.63377 5.03711 8.00002 5.03711ZM8.00002 10.3703C6.69308 10.3703 5.62969 9.30696 5.62969 8.00002C5.62969 6.69308 6.69308 5.62969 8.00002 5.62969C9.30696 5.62969 10.3703 6.69308 10.3703 8.00002C10.3703 9.30696 9.30696 10.3703 8.00002 10.3703Z" fill="#52616B"/>
</svg>
