<svg width="20" height="20" viewBox="0 0 20 20" fill="none" xmlns="http://www.w3.org/2000/svg">
<path d="M7.53618 12.0219L7.50462 12.1196L7.59443 12.1695L11.1628 14.152L11.2496 14.2002L11.3162 14.1266C11.7825 13.6115 12.4548 13.2872 13.2035 13.2872C14.6134 13.2872 15.7542 14.428 15.7542 15.8378C15.7542 17.2477 14.6134 18.3885 13.2035 18.3885C11.7936 18.3885 10.6528 17.2477 10.6528 15.8378C10.6528 15.5953 10.6898 15.3635 10.7528 15.1395L10.7795 15.0444L10.6931 14.9964L7.12476 13.014L7.03486 12.964L6.96853 13.0426C6.41228 13.7017 5.5783 14.122 4.64865 14.122C2.9712 14.122 1.61149 12.7623 1.61149 11.0849C1.61149 9.40741 2.9712 8.0477 4.64865 8.0477C5.55708 8.0477 6.36993 8.44919 6.92635 9.08276L6.99425 9.16007L7.08317 9.10829L11.5151 6.52748L11.6065 6.47423L11.5691 6.37526C11.4234 5.9898 11.3412 5.57178 11.3412 5.13514C11.3412 3.19012 12.9198 1.61149 14.8649 1.61149C16.8099 1.61149 18.3885 3.19012 18.3885 5.13514C18.3885 7.08015 16.8099 8.65878 14.8649 8.65878C13.7773 8.65878 12.8049 8.16568 12.1587 7.39025L12.0911 7.3091L11.9998 7.36224L7.57036 9.94062L7.48171 9.99222L7.51502 10.0892C7.62291 10.4035 7.68581 10.7377 7.68581 11.0849C7.68581 11.4115 7.63217 11.7245 7.53618 12.0219ZM14.8649 9.39527C17.2131 9.39527 19.125 7.48336 19.125 5.13514C19.125 2.78691 17.2131 0.875 14.8649 0.875C12.5166 0.875 10.6047 2.78691 10.6047 5.13514C10.6047 5.4717 10.6445 5.80644 10.726 6.13537L7.11827 8.23617C6.43389 7.64324 5.55913 7.31122 4.64865 7.31122C2.56799 7.31122 0.875 9.00421 0.875 11.0849C0.875 13.1655 2.56799 14.8585 4.64865 14.8585C5.59117 14.8585 6.48674 14.5095 7.17743 13.8846L9.94456 15.4214C9.92678 15.5592 9.91635 15.699 9.91635 15.8378C9.91635 17.6509 11.3904 19.125 13.2035 19.125C15.0166 19.125 16.4907 17.6509 16.4907 15.8378C16.4907 14.0247 15.0166 12.5507 13.2035 12.5507C12.4461 12.5507 11.7126 12.8156 11.1289 13.291L8.35916 11.754C8.39842 11.5346 8.41986 11.3112 8.41986 11.0873C8.41986 10.8382 8.39389 10.5894 8.34383 10.3444L11.9495 8.24349C12.7358 8.97911 13.772 9.39527 14.8649 9.39527Z" fill="#738C9D" stroke="#738C9D" stroke-width="0.25"/>
</svg>
