<svg width="18" height="18" viewBox="0 0 18 18" fill="none" xmlns="http://www.w3.org/2000/svg">
<path fill-rule="evenodd" clip-rule="evenodd" d="M9 18C4.02944 18 0 13.9706 0 9C0 4.02944 4.02944 0 9 0C13.9706 0 18 4.02944 18 9C18 13.9706 13.9706 18 9 18ZM8.4638 16.5055V6.79242C8.4638 6.64342 8.37954 6.60893 8.27559 6.71318L5.62656 9.36843C5.12089 9.87516 4.36264 9.11533 4.86832 8.6086L8.51801 4.90205C8.77948 4.6358 9.20129 4.63474 9.46151 4.89829L13.1318 8.6086C13.6374 9.11533 12.8789 9.87516 12.3735 9.36843L9.72449 6.71318C9.62086 6.60925 9.53628 6.64441 9.53628 6.79242V16.5055C9.53628 16.8039 9.77568 17.0184 10.071 16.9892C10.071 16.9892 9.90025 17.012 10.0795 16.988C14.0203 16.4605 17.0597 13.0852 17.0597 9C17.0597 4.54875 13.4513 0.940299 9 0.940299C4.54875 0.940299 0.940299 4.54875 0.940299 9C0.940299 13.0864 3.98142 16.4625 7.92389 16.9885C8.10209 17.0123 7.9281 16.989 7.9281 16.989C8.22298 17.0207 8.4638 16.8019 8.4638 16.5055Z" fill="#738C9D"/>
</svg>
